# Blender v2.80 (sub 75) OBJ File: 'mech-colid.blend'
# www.blender.org
o Cube
v -0.359287 0.585575 -0.933782
v 0.359287 0.585575 -0.933782
v -0.359287 1.085575 -0.933782
v 0.359287 1.085575 -0.933782
v 0.359287 1.085575 -0.420223
v -0.359287 1.085575 -0.420223
v -0.359287 0.585575 -0.420223
v 0.359287 0.585575 -0.420223
v -0.359287 -0.002148 -0.933782
v 0.359287 -0.002148 -0.933782
v -0.359287 -0.002148 -0.420223
v 0.359287 -0.002148 -0.420223
v -0.359287 2.744994 -0.933782
v 0.359287 2.744994 -0.933782
v 0.359287 2.744994 -0.420223
v -0.359287 2.744994 -0.420223
v -1.097063 1.085575 -0.420223
v -1.097063 1.085575 -0.933782
v -1.097063 2.744994 -0.420223
v -1.097063 2.744994 -0.933782
v 0.807850 1.085575 -0.420223
v 0.807850 1.085575 -0.933782
v 0.807850 2.744994 -0.420223
v 0.807850 2.744994 -0.933782
v 0.359287 2.108582 -0.933782
v -0.359287 2.108582 -0.933782
v -1.097063 2.108582 -0.420223
v -1.097063 2.108582 -0.933782
v 0.807850 2.108582 -0.933782
v -0.359287 1.597079 -0.933782
v -1.097063 1.597079 -0.933782
v 0.359287 1.597079 -0.933782
v -1.097063 1.597079 -0.420223
v 0.807850 1.597079 -0.933782
v 0.359287 0.539365 -2.356357
v 0.359287 1.490865 -2.386578
v -0.359287 1.490865 -2.386578
v -0.359287 0.979361 -2.386578
v -0.359287 1.288220 -1.433782
v 0.359287 0.326566 -1.009268
v -0.359287 1.799723 -1.433782
v 0.359287 1.799723 -1.065432
v 2.359288 0.455412 -2.352030
v 2.359288 1.454517 -2.259445
v 2.359288 1.869959 -1.299222
v 2.359288 0.475792 -1.274104
v -0.359287 1.085575 -0.065618
v 0.359287 0.585575 -0.065618
v 0.359287 1.085575 -0.065618
v -0.359287 0.585575 -0.065618
v -0.359287 2.744994 -0.065618
v 0.359287 2.744994 -0.065618
v -1.097063 1.085575 -0.065618
v -1.097063 2.744994 -0.065618
v 0.807850 1.085575 -0.065618
v 0.807850 2.744994 -0.065618
v -1.097063 2.108582 -0.065618
v -1.097063 1.597079 -0.065618
v -0.359287 0.585575 0.804798
v 0.359287 0.585575 0.804798
v -0.359287 1.085575 0.804798
v 0.359287 1.085575 0.804798
v 0.359287 1.085575 0.291239
v -0.359287 1.085575 0.291239
v -0.359287 0.585575 0.291239
v 0.359287 0.585575 0.291239
v -0.359287 -0.002148 0.804798
v 0.359287 -0.002148 0.804798
v -0.359287 -0.002148 0.291239
v 0.359287 -0.002148 0.291239
v -0.359287 2.744994 0.804798
v 0.359287 2.744994 0.804798
v 0.359287 2.744994 0.291239
v -0.359287 2.744994 0.291239
v -1.097063 1.085575 0.291239
v -1.097063 1.085575 0.804798
v -1.097063 2.744994 0.291239
v -1.097063 2.744994 0.804798
v 0.807850 1.085575 0.291239
v 0.807850 1.085575 0.804798
v 0.807850 2.744994 0.291239
v 0.807850 2.744994 0.804798
v 0.359287 2.108582 0.804798
v -0.359287 2.108582 0.804798
v -1.097063 2.108582 0.291239
v -1.097063 2.108582 0.804798
v 0.807850 2.108582 0.804798
v -0.359287 1.597079 0.804798
v -1.097063 1.597079 0.804798
v 0.359287 1.597079 0.804798
v -1.097063 1.597079 0.291239
v 0.807850 1.597079 0.804798
v 0.359287 0.539365 2.227373
v 0.359287 1.490865 2.257594
v -0.359287 1.490865 2.257594
v -0.359287 0.979361 2.257594
v -0.359287 1.288220 1.304798
v 0.359287 0.326566 0.880284
v -0.359287 1.799723 1.304798
v 0.359287 1.799723 0.936448
v 2.359288 0.455412 2.223046
v 2.359288 1.454517 2.130460
v 2.359288 1.869959 1.170238
v 2.359288 0.475792 1.145119
v -0.359287 1.085575 -0.063366
v 0.359287 0.585575 -0.063366
v 0.359287 1.085575 -0.063366
v -0.359287 0.585575 -0.063366
v -0.359287 2.744994 -0.063366
v 0.359287 2.744994 -0.063366
v -1.097063 1.085575 -0.063366
v -1.097063 2.744994 -0.063366
v 0.807850 1.085575 -0.063366
v 0.807850 2.744994 -0.063366
v -1.097063 2.108582 -0.063366
v -1.097063 1.597079 -0.063366
vn 0.0000 0.0000 -1.0000
vn -1.0000 0.0000 0.0000
vn 1.0000 0.0000 0.0000
vn 0.0000 -1.0000 0.0000
vn 0.0000 0.0000 1.0000
vn 0.0000 1.0000 0.0000
vn -0.7027 -0.7109 0.0297
vn 0.0147 -0.0207 -0.9997
vn 0.0670 0.9629 -0.2616
vn -0.0161 0.9530 -0.3026
vn 0.1764 0.7037 -0.6882
vn -0.4519 -0.3054 0.8381
vn 0.1221 0.0281 0.9921
vn 0.0338 0.0319 -0.9989
vn 0.0111 -0.9968 -0.0791
vn -0.7027 -0.7109 -0.0297
vn 0.0147 -0.0207 0.9997
vn 0.0670 0.9629 0.2616
vn -0.0161 0.9530 0.3026
vn 0.1764 0.7037 0.6882
vn -0.4519 -0.3054 -0.8381
vn 0.1221 0.0281 -0.9921
vn 0.0338 0.0319 0.9989
vn 0.0111 -0.9968 0.0791
s off
f 2//1 1//1 3//1 4//1
f 7//2 1//2 9//2 11//2
f 5//3 8//3 2//3 4//3
f 7//2 6//2 3//2 1//2
f 50//2 47//2 6//2 7//2
f 49//3 48//3 8//3 5//3
f 48//4 50//4 7//4 8//4
f 12//4 11//4 9//4 10//4
f 1//1 2//1 10//1 9//1
f 2//3 8//3 12//3 10//3
f 8//5 7//5 11//5 12//5
f 16//6 15//6 14//6 13//6
f 51//6 52//6 15//6 16//6
f 5//4 4//4 22//4 21//4
f 30//1 3//1 18//1 31//1
f 25//1 26//1 13//1 14//1
f 28//2 27//2 19//2 20//2
f 3//4 6//4 17//4 18//4
f 16//6 13//6 20//6 19//6
f 51//6 16//6 19//6 54//6
f 14//6 15//6 23//6 24//6
f 25//1 14//1 24//1 29//1
f 49//4 5//4 21//4 55//4
f 32//1 25//1 29//1 34//1
f 31//2 33//2 27//2 28//2
f 40//7 39//7 38//7 35//7
f 13//1 26//1 28//1 20//1
f 4//1 3//1 30//1 32//1
f 18//2 17//2 33//2 31//2
f 22//3 34//3 29//3 24//3 23//3 56//3 55//3 21//3
f 4//1 32//1 34//1 22//1
f 26//1 30//1 31//1 28//1
f 35//8 38//8 37//8 36//8
f 39//2 41//2 37//2 38//2
f 41//9 42//9 36//9 37//9
f 36//10 42//10 45//10 44//10
f 25//3 32//3 40//3 42//3
f 26//11 25//11 42//11 41//11
f 30//2 26//2 41//2 39//2
f 32//12 30//12 39//12 40//12
f 45//3 46//3 43//3 44//3
f 42//13 40//13 46//13 45//13
f 35//14 36//14 44//14 43//14
f 40//15 35//15 43//15 46//15
f 17//2 53//2 58//2 33//2
f 33//2 58//2 57//2 27//2
f 15//6 52//6 56//6 23//6
f 6//4 47//4 53//4 17//4
f 27//2 57//2 54//2 19//2
f 60//5 62//5 61//5 59//5
f 65//2 69//2 67//2 59//2
f 63//3 62//3 60//3 66//3
f 65//2 59//2 61//2 64//2
f 108//2 65//2 64//2 105//2
f 107//3 63//3 66//3 106//3
f 106//4 66//4 65//4 108//4
f 70//4 68//4 67//4 69//4
f 59//5 67//5 68//5 60//5
f 60//3 68//3 70//3 66//3
f 66//1 70//1 69//1 65//1
f 74//6 71//6 72//6 73//6
f 109//6 74//6 73//6 110//6
f 63//4 79//4 80//4 62//4
f 88//5 89//5 76//5 61//5
f 83//5 72//5 71//5 84//5
f 86//2 78//2 77//2 85//2
f 61//4 76//4 75//4 64//4
f 74//6 77//6 78//6 71//6
f 109//6 112//6 77//6 74//6
f 72//6 82//6 81//6 73//6
f 83//5 87//5 82//5 72//5
f 107//4 113//4 79//4 63//4
f 90//5 92//5 87//5 83//5
f 89//2 86//2 85//2 91//2
f 98//16 93//16 96//16 97//16
f 71//5 78//5 86//5 84//5
f 62//5 90//5 88//5 61//5
f 76//2 89//2 91//2 75//2
f 80//3 79//3 113//3 114//3 81//3 82//3 87//3 92//3
f 62//5 80//5 92//5 90//5
f 84//5 86//5 89//5 88//5
f 93//17 94//17 95//17 96//17
f 97//2 96//2 95//2 99//2
f 99//18 95//18 94//18 100//18
f 94//19 102//19 103//19 100//19
f 83//3 100//3 98//3 90//3
f 84//20 99//20 100//20 83//20
f 88//2 97//2 99//2 84//2
f 90//21 98//21 97//21 88//21
f 103//3 102//3 101//3 104//3
f 100//22 103//22 104//22 98//22
f 93//23 101//23 102//23 94//23
f 98//24 104//24 101//24 93//24
f 75//2 91//2 116//2 111//2
f 91//2 85//2 115//2 116//2
f 73//6 81//6 114//6 110//6
f 64//4 75//4 111//4 105//4
f 85//2 77//2 112//2 115//2
